<svg data-v-fde0c5aa="" xmlns="http://www.w3.org/2000/svg" viewBox="0 0 300 300" class="iconLeftSlogan"><!----><defs data-v-fde0c5aa=""><!----></defs><rect data-v-fde0c5aa="" fill="#2E1435" x="0" y="0" width="300px" height="300px" class="logo-background-square"></rect><defs data-v-fde0c5aa=""><!----></defs><g data-v-fde0c5aa="" id="4c0c4aab-4e99-406b-b542-d940b5b87668" fill="#EAE8E7" transform="matrix(2.1370933514009676,0,0,2.1370933514009676,105.21032332013394,116.90870670496895)"><path d="M0.49 9.34L0.49 9.34Q0.49 8.10 1.00 6.99Q1.52 5.89 2.46 5.11Q3.40 4.33 4.61 4.08L4.61 4.08Q5.13 3.97 5.67 3.97L5.67 3.97Q7.52 3.97 9.00 5.19Q10.48 6.41 10.89 8.31L10.89 8.31Q11.01 8.89 11.01 9.48L11.01 9.48Q11.01 10.72 10.50 11.82Q9.98 12.91 9.03 13.68Q8.09 14.45 6.88 14.71L6.88 14.71Q6.33 14.83 5.82 14.83L5.82 14.83Q3.96 14.83 2.50 13.61Q1.03 12.40 0.62 10.50L0.62 10.50Q0.49 9.91 0.49 9.34ZM2.58 8.59L2.58 8.59Q2.58 9.32 2.73 10.05L2.73 10.05Q2.85 10.59 3.03 11.08Q3.21 11.57 3.50 12.03Q3.78 12.50 4.13 12.83Q4.48 13.17 4.95 13.37Q5.42 13.58 5.95 13.58L5.95 13.58Q6.29 13.58 6.62 13.51L6.62 13.51Q7.25 13.37 7.71 13.05Q8.17 12.73 8.43 12.27Q8.68 11.82 8.80 11.31Q8.93 10.79 8.93 10.20L8.93 10.20Q8.93 9.53 8.77 8.76L8.77 8.76Q8.65 8.22 8.47 7.73Q8.29 7.23 8.00 6.76Q7.71 6.30 7.36 5.96Q7.01 5.62 6.54 5.41Q6.06 5.21 5.52 5.21L5.52 5.21Q5.20 5.21 4.87 5.28L4.87 5.28Q4.37 5.38 3.97 5.62Q3.58 5.85 3.32 6.17Q3.06 6.48 2.89 6.88Q2.72 7.28 2.65 7.70Q2.58 8.12 2.58 8.59ZM11.43 14.44L11.43 14.44L11.43 14.01Q11.43 13.81 11.64 13.81L11.64 13.81L11.66 13.81Q12.67 13.81 12.67 12.48L12.67 12.48L12.67 6.32Q12.67 4.99 11.66 4.99L11.66 4.99L11.64 4.99Q11.43 4.99 11.43 4.78L11.43 4.78L11.43 4.36Q11.43 4.15 11.64 4.15L11.64 4.15L18.66 4.15Q18.84 4.15 18.92 4.07L18.92 4.07L19.00 4.00Q19.07 3.96 19.12 3.96L19.12 3.96Q19.23 3.96 19.30 4.07L19.30 4.07L20.41 5.98Q20.45 6.04 20.45 6.10L20.45 6.10Q20.45 6.20 20.34 6.28L20.34 6.28L19.75 6.59Q19.69 6.63 19.63 6.63L19.63 6.63Q19.53 6.63 19.46 6.51L19.46 6.51L19.41 6.43Q19.00 5.74 18.51 5.44Q18.01 5.14 17.18 5.14L17.18 5.14L14.83 5.14L14.83 8.43L16.13 8.43Q17.42 8.43 17.47 7.49L17.47 7.49L17.47 7.39Q17.47 7.18 17.67 7.18L17.67 7.18L18.09 7.18Q18.31 7.18 18.31 7.39L18.31 7.39L18.31 10.58Q18.31 10.78 18.09 10.78L18.09 10.78L17.67 10.78Q17.47 10.78 17.47 10.58L17.47 10.58L17.47 10.49Q17.42 9.54 16.13 9.54L16.13 9.54L14.91 9.54L14.91 12.33Q14.91 13.62 15.87 13.65L15.87 13.65L16.78 13.65Q17.17 13.65 17.41 13.63Q17.66 13.62 18.01 13.55Q18.35 13.49 18.61 13.35Q18.88 13.21 19.19 12.99Q19.50 12.76 19.79 12.40Q20.09 12.04 20.39 11.55L20.39 11.55L20.44 11.47Q20.51 11.35 20.61 11.35L20.61 11.35Q20.67 11.35 20.73 11.39L20.73 11.39L21.18 11.65Q21.30 11.72 21.30 11.82L21.30 11.82Q21.30 11.88 21.26 11.94L21.26 11.94L19.95 14.72Q19.89 14.84 19.78 14.84L19.78 14.84Q19.72 14.84 19.65 14.79L19.65 14.79L19.58 14.72Q19.50 14.65 19.30 14.65L19.30 14.65L11.64 14.65Q11.43 14.65 11.43 14.44ZM25.50 14.43L25.50 14.43L25.50 14.01Q25.50 13.80 25.71 13.80L25.71 13.80L25.81 13.80Q26.74 13.75 26.74 12.47L26.74 12.47L26.74 6.32Q26.74 4.98 25.72 4.98L25.72 4.98L25.71 4.98Q25.50 4.98 25.50 4.78L25.50 4.78L25.50 4.35Q25.50 4.14 25.71 4.14L25.71 4.14L30.02 4.14Q31.64 4.14 32.90 4.75Q34.17 5.36 34.91 6.56Q35.66 7.76 35.66 9.37L35.66 9.37Q35.66 10.50 35.35 11.44Q35.03 12.38 34.41 13.10Q33.79 13.83 32.77 14.24Q31.75 14.64 30.41 14.64L30.41 14.64L25.71 14.64Q25.50 14.64 25.50 14.43ZM28.98 4.98L28.98 12.40Q28.98 12.68 28.99 12.83Q29.00 12.99 29.05 13.19Q29.11 13.38 29.21 13.48Q29.32 13.58 29.52 13.65Q29.72 13.73 30.02 13.73L30.02 13.73Q30.82 13.73 31.43 13.54Q32.03 13.34 32.43 12.99Q32.83 12.64 33.07 12.09Q33.32 11.55 33.42 10.89Q33.52 10.23 33.52 9.37L33.52 9.37Q33.52 7.29 32.51 6.14Q31.49 4.98 29.63 4.98L29.63 4.98L28.98 4.98ZM36.48 11.08L36.48 11.08Q36.48 10.33 36.67 9.71Q36.87 9.10 37.18 8.69Q37.50 8.29 37.94 8.01Q38.37 7.73 38.84 7.61Q39.31 7.49 39.82 7.49L39.82 7.49Q40.35 7.49 40.83 7.67Q41.30 7.85 41.64 8.13Q41.97 8.42 42.22 8.78Q42.46 9.14 42.58 9.50Q42.70 9.86 42.70 10.19L42.70 10.19Q42.70 10.31 42.58 10.36L42.58 10.36L38.52 12.14Q38.79 12.79 39.32 13.22Q39.86 13.64 40.62 13.64L40.62 13.64Q41.09 13.64 41.57 13.38Q42.05 13.13 42.40 12.61L42.40 12.61Q42.44 12.55 42.52 12.55L42.52 12.55Q42.62 12.55 43.08 12.82L43.08 12.82Q43.13 12.86 43.13 12.93L43.13 12.93Q43.13 13.02 43.05 13.18L43.05 13.18Q42.16 14.81 40.24 14.81L40.24 14.81Q39.12 14.81 38.25 14.30Q37.38 13.79 36.93 12.94Q36.48 12.10 36.48 11.08ZM38.56 9.05Q38.22 9.50 38.22 10.20Q38.22 10.90 38.35 11.27L38.35 11.27L40.60 10.13Q40.60 9.47 40.28 9.03Q39.96 8.59 39.48 8.59L39.48 8.59Q38.91 8.59 38.56 9.05ZM43.48 12.33L43.48 12.33Q43.48 12.22 43.60 12.15L43.60 12.15L44.03 11.90Q44.08 11.87 44.15 11.87L44.15 11.87Q44.26 11.87 44.32 11.98L44.32 11.98Q45.55 13.87 47.49 13.87L47.49 13.87Q48.84 13.87 48.84 13.07L48.84 13.07Q48.84 12.95 48.80 12.85Q48.76 12.74 48.67 12.65Q48.58 12.56 48.50 12.49Q48.42 12.41 48.26 12.34Q48.10 12.26 47.99 12.22Q47.89 12.17 47.68 12.10Q47.47 12.04 47.36 12.00Q47.26 11.97 47.03 11.90Q46.80 11.84 46.71 11.81L46.71 11.81Q46.04 11.61 45.55 11.39Q45.07 11.16 44.78 10.93Q44.50 10.71 44.32 10.44Q44.15 10.17 44.10 9.93Q44.04 9.69 44.04 9.39L44.04 9.39Q44.04 8.54 44.70 8.00Q45.36 7.47 46.44 7.47L46.44 7.47Q47.02 7.47 47.52 7.62Q48.03 7.77 48.30 7.93L48.30 7.93Q48.34 7.95 48.36 7.95L48.36 7.95Q48.46 7.95 48.38 7.66L48.38 7.66Q48.36 7.59 48.36 7.56L48.36 7.56Q48.36 7.42 48.54 7.42L48.54 7.42L48.90 7.42Q49.08 7.42 49.14 7.58L49.14 7.58L49.85 9.36Q49.88 9.45 49.88 9.50L49.88 9.50Q49.88 9.59 49.77 9.65L49.77 9.65L49.43 9.83Q49.36 9.86 49.32 9.86L49.32 9.86Q49.23 9.86 49.14 9.75L49.14 9.75Q48.56 9.02 47.88 8.67Q47.20 8.32 46.63 8.32L46.63 8.32Q46.21 8.32 45.93 8.49Q45.66 8.66 45.66 9.03L45.66 9.03Q45.66 9.25 45.78 9.42Q45.91 9.60 46.16 9.72Q46.41 9.84 46.64 9.92Q46.87 10.00 47.22 10.09L47.22 10.09Q48.39 10.39 48.86 10.59L48.86 10.59Q50.22 11.16 50.37 12.26L50.37 12.26Q50.38 12.39 50.38 12.53L50.38 12.53Q50.38 13.53 49.58 14.17Q48.77 14.81 47.43 14.81L47.43 14.81Q46.55 14.81 45.81 14.44L45.81 14.44Q45.73 14.41 45.68 14.41L45.68 14.41Q45.55 14.41 45.62 14.62L45.62 14.62Q45.64 14.68 45.64 14.73L45.64 14.73Q45.64 14.85 45.47 14.84L45.47 14.84L44.97 14.84Q44.81 14.84 44.73 14.70L44.73 14.70L43.52 12.44Q43.48 12.37 43.48 12.33ZM50.95 14.43L50.95 14.43L50.95 14.01Q50.95 13.80 51.16 13.80L51.16 13.80L51.18 13.80Q51.68 13.79 51.95 13.43L51.95 13.43Q52.20 13.07 52.20 12.52L52.20 12.52Q52.20 12.50 52.20 12.47L52.20 12.47L52.20 10.99Q52.20 10.70 52.18 10.49Q52.15 10.29 52.08 10.05Q52.00 9.81 51.82 9.67Q51.65 9.53 51.37 9.50L51.37 9.50Q51.19 9.48 51.21 9.32L51.21 9.32L51.21 8.85Q51.21 8.76 51.25 8.73Q51.30 8.70 51.41 8.66L51.41 8.66Q53.20 8.06 53.98 7.24L53.98 7.24Q54.02 7.21 54.04 7.21L54.04 7.21L54.08 7.21Q54.09 7.21 54.11 7.23L54.11 7.23L54.11 12.47Q54.11 13.06 54.37 13.43Q54.64 13.80 55.14 13.80L55.14 13.80L55.17 13.80Q55.38 13.80 55.38 14.01L55.38 14.01L55.38 14.43Q55.38 14.53 55.32 14.59Q55.25 14.64 55.15 14.64L55.15 14.64L51.19 14.64Q51.08 14.64 51.02 14.59Q50.95 14.53 50.95 14.43ZM52.08 5.33L52.08 5.33Q52.08 4.98 52.42 4.63Q52.77 4.29 53.13 4.29L53.13 4.29Q53.48 4.29 53.83 4.63L53.83 4.63Q54.18 4.99 54.18 5.33L54.18 5.33Q54.18 5.68 53.83 6.04L53.83 6.04Q53.48 6.38 53.13 6.38L53.13 6.38Q52.77 6.38 52.42 6.04Q52.08 5.69 52.08 5.33ZM55.86 15.94L55.86 15.94Q55.86 15.10 56.70 14.62L56.70 14.62Q55.99 14.17 55.99 13.35L55.99 13.35Q55.99 12.90 56.23 12.56Q56.46 12.22 56.85 12.05L56.85 12.05Q56.03 11.30 56.03 10.15L56.03 10.15Q56.03 9.01 56.87 8.24Q57.71 7.47 59.10 7.47L59.10 7.47Q60.23 7.47 61.04 8.00L61.04 8.00L61.10 8.03Q61.16 8.05 61.24 8.05L61.24 8.05Q61.48 8.05 61.48 7.76L61.48 7.76Q61.48 7.73 61.48 7.70L61.48 7.70L61.48 7.66Q61.48 7.49 61.63 7.45L61.63 7.45L62.60 7.22L62.67 7.21Q62.84 7.21 62.85 7.42L62.85 7.42Q62.86 7.51 62.86 7.60L62.86 7.60Q62.86 8.13 62.62 8.46L62.62 8.46Q62.34 8.85 61.85 8.85L61.85 8.85Q62.19 9.44 62.19 10.15L62.19 10.15Q62.19 11.29 61.35 12.06Q60.51 12.82 59.10 12.82L59.10 12.82Q58.15 12.82 57.41 12.43L57.41 12.43Q57.23 12.58 57.23 12.78L57.23 12.78Q57.23 13.01 57.38 13.14Q57.52 13.28 57.98 13.37Q58.43 13.47 59.27 13.51L59.27 13.51Q59.82 13.54 60.25 13.59Q60.67 13.65 61.12 13.79Q61.57 13.93 61.86 14.15Q62.15 14.36 62.34 14.73Q62.53 15.09 62.53 15.58L62.53 15.58Q62.53 16.02 62.32 16.38Q62.12 16.73 61.78 16.97Q61.45 17.20 60.99 17.36Q60.53 17.51 60.04 17.58Q59.55 17.65 59.04 17.65L59.04 17.65Q58.15 17.65 57.45 17.47Q56.75 17.29 56.30 16.90Q55.86 16.51 55.86 15.94ZM57.25 15.75L57.25 15.75Q57.25 16.13 57.67 16.41Q58.08 16.69 59.04 16.69L59.04 16.69Q60.07 16.69 60.63 16.50Q61.19 16.30 61.19 15.98L61.19 15.98Q61.19 15.76 61.04 15.61Q60.90 15.46 60.59 15.38Q60.27 15.29 59.90 15.25Q59.53 15.20 58.95 15.18L58.95 15.18Q58.22 15.13 57.65 15.00L57.65 15.00Q57.25 15.29 57.25 15.75ZM57.74 10.15L57.74 10.15Q57.74 10.48 57.80 10.79Q57.87 11.09 58.02 11.38Q58.17 11.66 58.45 11.83Q58.73 12.00 59.10 12.00L59.10 12.00Q59.41 12.00 59.65 11.89Q59.88 11.77 60.02 11.59Q60.15 11.41 60.23 11.15Q60.32 10.90 60.35 10.66Q60.38 10.42 60.38 10.15L60.38 10.15Q60.38 9.80 60.32 9.51Q60.27 9.21 60.14 8.92Q60.01 8.63 59.75 8.46Q59.49 8.29 59.10 8.29L59.10 8.29Q58.80 8.29 58.56 8.41Q58.32 8.52 58.17 8.71Q58.02 8.89 57.92 9.15Q57.82 9.40 57.78 9.65Q57.74 9.89 57.74 10.15ZM63.22 14.43L63.22 14.43L63.22 14.01Q63.22 13.80 63.42 13.80L63.42 13.80L63.46 13.80Q63.95 13.80 64.21 13.43Q64.48 13.06 64.48 12.47L64.48 12.47L64.48 10.71Q64.48 10.37 64.45 10.14Q64.43 9.92 64.35 9.67Q64.28 9.41 64.10 9.27Q63.92 9.13 63.65 9.10L63.65 9.10Q63.47 9.08 63.49 8.92L63.49 8.92L63.49 8.44Q63.49 8.29 63.68 8.26L63.68 8.26Q64.58 8.11 65.34 7.81Q66.10 7.50 66.46 7.24L66.46 7.24Q66.51 7.21 66.52 7.21L66.52 7.21L66.55 7.21Q66.57 7.21 66.57 7.23L66.57 7.23L66.32 9.06Q67.33 7.46 68.74 7.46L68.74 7.46Q69.32 7.46 69.76 7.62Q70.19 7.77 70.45 8.02Q70.70 8.27 70.86 8.64Q71.01 9.00 71.07 9.37Q71.12 9.73 71.12 10.17L71.12 10.17L71.12 12.47Q71.12 13.06 71.39 13.43Q71.65 13.80 72.15 13.80L72.15 13.80L72.21 13.80Q72.43 13.80 72.43 14.01L72.43 14.01L72.43 14.43Q72.43 14.64 72.21 14.64L72.21 14.64L68.41 14.64Q68.20 14.64 68.20 14.43L68.20 14.43L68.20 14.01Q68.20 13.80 68.42 13.80L68.42 13.80Q68.80 13.81 68.99 13.44L68.99 13.44Q69.16 13.10 69.16 12.55L69.16 12.55Q69.16 12.51 69.16 12.47L69.16 12.47L69.16 10.36Q69.16 10.32 69.16 10.25L69.16 10.25Q69.16 10.04 69.16 9.92Q69.16 9.81 69.14 9.62Q69.12 9.43 69.08 9.32Q69.05 9.21 68.97 9.08Q68.90 8.94 68.79 8.87Q68.69 8.80 68.52 8.75Q68.36 8.70 68.15 8.70L68.15 8.70Q67.64 8.70 67.14 9.06Q66.63 9.43 66.45 9.89L66.45 9.89L66.45 12.47Q66.45 13.06 66.71 13.43Q66.98 13.80 67.47 13.80L67.47 13.80L67.50 13.80Q67.71 13.80 67.71 14.01L67.71 14.01L67.71 14.43Q67.71 14.64 67.50 14.64L67.50 14.64L63.42 14.64Q63.22 14.64 63.22 14.43Z"></path></g><defs data-v-fde0c5aa=""><!----></defs><g data-v-fde0c5aa="" id="faa52b95-fd7e-4375-bf3e-1c46414a8850" stroke="none" fill="#EAE8E7" transform="matrix(1.6642968463344163,0,0,1.6642968463344163,40,123.37125045864934)"><path d="M11.579 32H32L21.789 14.314z"></path><circle cx="8.683" cy="8.683" r="8.683"></circle></g><defs data-v-fde0c5aa=""><!----></defs><g data-v-fde0c5aa="" id="2e4baebb-eee1-4140-b17a-061a1f003bb3" fill="#EAE8E7" transform="matrix(0.2771083823179698,0,0,0.2771083823179698,105.94436661200336,164.04647596551897)"><path d="M6.97 6.75C7.63 6.45 8.22 5.85 8.22 4.66C8.22 3.54 7.48 2.21 5.29 2.21L1.13 2.21L1.13 11.48L5.53 11.48C7.64 11.48 8.69 10.43 8.69 9.04C8.69 7.66 7.76 7 6.97 6.75ZM2.18 3.21L5.40 3.21C6.68 3.21 7.17 3.98 7.17 4.75C7.17 5.88 6.26 6.36 5.29 6.36L2.18 6.36ZM5.64 10.49L2.18 10.49L2.18 7.31L5.53 7.31C7 7.31 7.64 8.09 7.64 8.96C7.64 9.93 6.92 10.49 5.64 10.49ZM24.12 2.21L24.12 7.52C24.12 9.67 22.69 10.57 21.22 10.57C19.75 10.57 18.34 9.67 18.34 7.52L18.34 2.21L17.29 2.21L17.29 7.49C17.29 9.95 18.91 11.59 21.22 11.59C23.55 11.59 25.17 9.94 25.17 7.49L25.17 2.21ZM35.38 2.21L34.33 2.21L34.33 11.48L35.38 11.48ZM44.65 2.21L44.65 11.48L50.75 11.48L50.75 10.47L45.70 10.47L45.70 2.21ZM63.01 2.21L59.11 2.21L59.11 11.48L63.01 11.48C65.23 11.48 67.27 9.74 67.27 6.85C67.27 3.95 65.23 2.21 63.01 2.21ZM62.97 10.49L60.16 10.49L60.16 3.21L62.97 3.21C64.95 3.21 66.22 4.86 66.22 6.85C66.22 8.83 64.95 10.49 62.97 10.49ZM77.01 2.21L75.96 2.21L75.96 11.48L77.01 11.48ZM93.23 2.21L93.23 10.01L87.50 2.21L86.28 2.21L86.28 11.48L87.33 11.48L87.33 3.65L93.06 11.48L94.28 11.48L94.28 2.21ZM107.52 2.10C104.73 2.10 102.96 4.21 102.96 6.85C102.96 9.48 104.66 11.59 107.49 11.59C109.17 11.59 110.26 10.74 110.85 9.84L110.85 11.48L111.82 11.48L111.82 6.55L107.46 6.55L107.46 7.50L110.85 7.50C110.85 9.44 109.26 10.57 107.58 10.57C105.32 10.57 104.01 8.93 104.01 6.85C104.01 4.76 105.35 3.12 107.60 3.12C109.02 3.12 110.03 3.74 110.59 4.73L111.73 4.73C111.05 3.18 109.51 2.10 107.52 2.10ZM137.23 2.21L129.71 2.21L129.71 3.22L132.94 3.22L132.94 11.48L133.99 11.48L133.99 3.22L137.23 3.22ZM152.00 2.21L152.00 6.33L146.61 6.33L146.61 2.21L145.56 2.21L145.56 11.48L146.61 11.48L146.61 7.35L152.00 7.35L152.00 11.48L153.05 11.48L153.05 2.21ZM169.13 3.22L169.13 2.21L162.32 2.21L162.32 11.48L169.13 11.48L169.13 10.47L163.37 10.47L163.37 7.35L168.52 7.35L168.52 6.33L163.37 6.33L163.37 3.22ZM193.38 3.70L195.89 11.48L197.08 11.48L199.96 2.21L198.86 2.21L196.48 10.00L193.98 2.21L192.78 2.21L190.29 10.00L187.91 2.21L186.80 2.21L189.69 11.48L190.88 11.48ZM215.04 3.22L215.04 2.21L208.22 2.21L208.22 11.48L215.04 11.48L215.04 10.47L209.27 10.47L209.27 7.35L214.42 7.35L214.42 6.33L209.27 6.33L209.27 3.22ZM229.57 6.75C230.23 6.45 230.82 5.85 230.82 4.66C230.82 3.54 230.08 2.21 227.89 2.21L223.73 2.21L223.73 11.48L228.13 11.48C230.24 11.48 231.29 10.43 231.29 9.04C231.29 7.66 230.36 7 229.57 6.75ZM224.78 3.21L228.00 3.21C229.28 3.21 229.77 3.98 229.77 4.75C229.77 5.88 228.86 6.36 227.89 6.36L224.78 6.36ZM228.24 10.49L224.78 10.49L224.78 7.31L228.13 7.31C229.60 7.31 230.24 8.09 230.24 8.96C230.24 9.93 229.52 10.49 228.24 10.49ZM239.61 10.05L239.61 11.48L240.97 11.48L240.97 10.05ZM266.64 3.22L266.64 2.21L259.83 2.21L259.83 11.48L266.64 11.48L266.64 10.47L260.88 10.47L260.88 7.35L266.03 7.35L266.03 6.33L260.88 6.33L260.88 3.22ZM275.34 2.21L275.34 11.48L281.44 11.48L281.44 10.47L276.39 10.47L276.39 2.21ZM296.62 3.22L296.62 2.21L289.80 2.21L289.80 11.48L296.62 11.48L296.62 10.47L290.85 10.47L290.85 7.35L296.00 7.35L296.00 6.33L290.85 6.33L290.85 3.22ZM311.78 2.21L308.57 10.29L305.37 2.21L304.22 2.21L307.97 11.48L309.18 11.48L312.93 2.21ZM324.66 2.21L323.34 2.21L319.41 11.48L320.57 11.48L321.71 8.79L326.30 8.79L327.43 11.48L328.59 11.48ZM322.11 7.83L324.00 3.30L325.89 7.83ZM342.52 2.21L335.01 2.21L335.01 3.22L338.24 3.22L338.24 11.48L339.29 11.48L339.29 3.22L342.52 3.22ZM351.90 2.21L350.85 2.21L350.85 11.48L351.90 11.48ZM368.12 2.21L368.12 10.01L362.39 2.21L361.17 2.21L361.17 11.48L362.22 11.48L362.22 3.65L367.95 11.48L369.17 11.48L369.17 2.21ZM382.41 2.10C379.62 2.10 377.85 4.21 377.85 6.85C377.85 9.48 379.55 11.59 382.38 11.59C384.06 11.59 385.15 10.74 385.74 9.84L385.74 11.48L386.71 11.48L386.71 6.55L382.35 6.55L382.35 7.50L385.74 7.50C385.74 9.44 384.15 10.57 382.47 10.57C380.21 10.57 378.90 8.93 378.90 6.85C378.90 4.76 380.24 3.12 382.49 3.12C383.91 3.12 384.92 3.74 385.48 4.73L386.62 4.73C385.94 3.18 384.40 2.10 382.41 2.10ZM409.33 7.81L413.21 2.21L411.94 2.21L408.80 6.72L405.66 2.21L404.39 2.21L408.28 7.81L408.28 11.48L409.33 11.48ZM424.96 2.10C422.14 2.10 420.25 4.21 420.25 6.85C420.25 9.48 422.14 11.59 424.96 11.59C427.77 11.59 429.66 9.48 429.66 6.85C429.66 4.21 427.77 2.10 424.96 2.10ZM424.96 10.57C422.70 10.57 421.30 8.93 421.30 6.85C421.30 4.76 422.70 3.12 424.96 3.12C427.21 3.12 428.61 4.76 428.61 6.85C428.61 8.93 427.21 10.57 424.96 10.57ZM445.06 2.21L445.06 7.52C445.06 9.67 443.63 10.57 442.16 10.57C440.69 10.57 439.28 9.67 439.28 7.52L439.28 2.21L438.23 2.21L438.23 7.49C438.23 9.95 439.85 11.59 442.16 11.59C444.49 11.59 446.11 9.94 446.11 7.49L446.11 2.21ZM456.32 7.92L459.54 7.92L461.78 11.48L463.02 11.48L460.59 7.74C461.62 7.50 462.83 6.90 462.83 5.11C462.83 3.35 461.61 2.21 459.70 2.21L455.27 2.21L455.27 11.48L456.32 11.48ZM456.32 3.21L459.58 3.21C460.89 3.21 461.78 3.93 461.78 5.11C461.78 6.55 460.52 6.93 459.52 6.93L456.32 6.93ZM487.45 6.75C488.11 6.45 488.70 5.85 488.70 4.66C488.70 3.54 487.96 2.21 485.77 2.21L481.61 2.21L481.61 11.48L486.01 11.48C488.12 11.48 489.17 10.43 489.17 9.04C489.17 7.66 488.24 7 487.45 6.75ZM482.66 3.21L485.88 3.21C487.16 3.21 487.65 3.98 487.65 4.75C487.65 5.88 486.74 6.36 485.77 6.36L482.66 6.36ZM486.12 10.49L482.66 10.49L482.66 7.31L486.01 7.31C487.48 7.31 488.12 8.09 488.12 8.96C488.12 9.93 487.40 10.49 486.12 10.49ZM498.93 7.92L502.15 7.92L504.39 11.48L505.64 11.48L503.20 7.74C504.24 7.50 505.44 6.90 505.44 5.11C505.44 3.35 504.22 2.21 502.32 2.21L497.88 2.21L497.88 11.48L498.93 11.48ZM498.93 3.21L502.19 3.21C503.51 3.21 504.39 3.93 504.39 5.11C504.39 6.55 503.13 6.93 502.14 6.93L498.93 6.93ZM518.41 2.21L517.09 2.21L513.16 11.48L514.32 11.48L515.45 8.79L520.04 8.79L521.18 11.48L522.34 11.48ZM515.86 7.83L517.75 3.30L519.64 7.83ZM537.46 2.21L537.46 10.01L531.73 2.21L530.52 2.21L530.52 11.48L531.57 11.48L531.57 3.65L537.29 11.48L538.51 11.48L538.51 2.21ZM551.68 2.21L547.78 2.21L547.78 11.48L551.68 11.48C553.90 11.48 555.94 9.74 555.94 6.85C555.94 3.95 553.90 2.21 551.68 2.21ZM551.64 10.49L548.83 10.49L548.83 3.21L551.64 3.21C553.62 3.21 554.89 4.86 554.89 6.85C554.89 8.83 553.62 10.49 551.64 10.49Z"></path></g></svg>